<svg width="23" height="22" viewBox="0 0 23 22" fill="none" xmlns="http://www.w3.org/2000/svg">
<path d="M17.3261 21.6698C16.7961 21.6698 16.1161 21.4998 15.2661 20.9998L12.2761 19.2298C11.9661 19.0498 11.3661 19.0498 11.0661 19.2298L8.06613 20.9998C6.29613 22.0498 5.25613 21.6298 4.78613 21.2898C4.32613 20.9498 3.60613 20.0798 4.07613 18.0798L4.78613 15.0098C4.86613 14.6898 4.70613 14.1398 4.46613 13.8998L1.98613 11.4198C0.746133 10.1798 0.846133 9.11983 1.01613 8.59982C1.18613 8.07982 1.72613 7.15982 3.44613 6.86982L6.63613 6.33982C6.93613 6.28982 7.36613 5.96982 7.49613 5.69982L9.26613 2.16982C10.0661 0.559824 11.1161 0.319824 11.6661 0.319824C12.2161 0.319824 13.2661 0.559824 14.0661 2.16982L15.8261 5.68982C15.9661 5.95982 16.3961 6.27982 16.6961 6.32982L19.8861 6.85982C21.6161 7.14982 22.1561 8.06982 22.3161 8.58982C22.4761 9.10983 22.5761 10.1698 21.3461 11.4098L18.8661 13.8998C18.6261 14.1398 18.4761 14.6798 18.5461 15.0098L19.2561 18.0798C19.7161 20.0798 19.0061 20.9498 18.5461 21.2898C18.2961 21.4698 17.8961 21.6698 17.3261 21.6698ZM11.6661 17.5898C12.1561 17.5898 12.6461 17.7098 13.0361 17.9398L16.0261 19.7098C16.8961 20.2298 17.4461 20.2298 17.6561 20.0798C17.8661 19.9298 18.0161 19.3998 17.7961 18.4198L17.0861 15.3498C16.8961 14.5198 17.2061 13.4498 17.8061 12.8398L20.2861 10.3598C20.7761 9.86982 20.9961 9.38982 20.8961 9.05982C20.7861 8.72983 20.3261 8.45982 19.6461 8.34982L16.4561 7.81982C15.6861 7.68982 14.8461 7.06982 14.4961 6.36982L12.7361 2.84982C12.4161 2.20982 12.0161 1.82982 11.6661 1.82982C11.3161 1.82982 10.9161 2.20982 10.6061 2.84982L8.83613 6.36982C8.48613 7.06982 7.64613 7.68982 6.87613 7.81982L3.69613 8.34982C3.01613 8.45982 2.55613 8.72983 2.44613 9.05982C2.33613 9.38982 2.56613 9.87982 3.05613 10.3598L5.53613 12.8398C6.13613 13.4398 6.44613 14.5198 6.25613 15.3498L5.54613 18.4198C5.31613 19.4098 5.47613 19.9298 5.68613 20.0798C5.89613 20.2298 6.43613 20.2198 7.31613 19.7098L10.3061 17.9398C10.6861 17.7098 11.1761 17.5898 11.6661 17.5898Z" fill="#745EE1"/>
</svg>
