<svg width="189" height="30" viewBox="0 0 189 30" fill="none" xmlns="http://www.w3.org/2000/svg">
<path fill-rule="evenodd" clip-rule="evenodd" d="M14 0H4L0 20H10L14 0ZM21 20H11L9 30H19L21 20Z" fill="url(#paint0_angular_187_314)"/>
<path fill-rule="evenodd" clip-rule="evenodd" d="M26 0H36L30 30H20L26 0ZM37 0H47L46 5H36L37 0ZM45 10H35L34 15H44L45 10Z" fill="#C0ABFF"/>
<path d="M63.656 20.3399H69.032L68.48 23.4599H59L61.976 6.61195H66.08L63.656 20.3399Z" fill="#E5E4ED"/>
<path d="M81.4535 20.4839H75.1655L73.6295 23.4599H69.3335L78.4055 6.61195H83.1575L86.2775 23.4599H81.9335L81.4535 20.4839ZM80.9735 17.3639L79.9895 11.1239L76.7735 17.3639H80.9735Z" fill="#E5E4ED"/>
<path d="M107.632 6.61195L107.056 9.85195H100.192L99.5675 13.4759H104.703L104.127 16.5959H98.9915L97.7915 23.4599H93.6875L96.6635 6.61195H107.632Z" fill="#E5E4ED"/>
<path d="M113.893 6.61195L110.917 23.4599H106.812L109.789 6.61195H113.893Z" fill="#E5E4ED"/>
<path d="M128.987 6.61195L128.435 9.85195H123.947L121.547 23.4599H117.443L119.843 9.85195H115.379L115.955 6.61195H128.987Z" fill="#E5E4ED"/>
<path d="M143.142 23.4599H139.038L134.022 13.0679L132.174 23.4599H128.07L131.046 6.61195H135.15L140.166 17.0519L142.014 6.61195H146.118L143.142 23.4599Z" fill="#E5E4ED"/>
<path d="M152.621 9.85195L152.021 13.3559H157.517L156.965 16.4519H151.469L150.797 20.2199H157.013L156.437 23.4599H146.117L149.093 6.61195H159.413L158.837 9.85195H152.621Z" fill="#E5E4ED"/>
<path d="M165.798 23.6279C163.974 23.6279 162.486 23.2359 161.334 22.4519C160.198 21.6519 159.63 20.5239 159.63 19.0679C159.63 18.9239 159.646 18.7079 159.678 18.4199H163.95C163.902 19.0279 164.046 19.5079 164.382 19.8599C164.718 20.2119 165.23 20.3879 165.918 20.3879C166.542 20.3879 167.03 20.2519 167.382 19.9799C167.75 19.7079 167.934 19.3239 167.934 18.8279C167.934 18.3159 167.702 17.8999 167.238 17.5799C166.79 17.2599 166.086 16.8999 165.126 16.4999C164.198 16.1159 163.438 15.7559 162.846 15.4199C162.27 15.0679 161.766 14.5959 161.334 14.0039C160.902 13.4119 160.686 12.6679 160.686 11.7719C160.67 10.6679 160.942 9.70795 161.502 8.89195C162.062 8.07595 162.838 7.45195 163.83 7.01995C164.822 6.58795 165.958 6.37195 167.238 6.37195C168.39 6.37195 169.414 6.55595 170.31 6.92395C171.206 7.27595 171.902 7.79595 172.398 8.48395C172.894 9.15595 173.142 9.95595 173.142 10.8839C173.142 11.1239 173.134 11.2999 173.118 11.4119H168.75C168.766 11.3479 168.774 11.2519 168.774 11.1239C168.774 10.6759 168.614 10.3159 168.294 10.0439C167.99 9.75595 167.566 9.61195 167.022 9.61195C166.446 9.61195 165.974 9.75595 165.606 10.0439C165.254 10.3159 165.078 10.6919 165.078 11.1719C165.078 11.6519 165.302 12.0599 165.75 12.3959C166.198 12.7159 166.894 13.0919 167.838 13.5239C168.782 13.9559 169.55 14.3559 170.142 14.7239C170.75 15.0919 171.27 15.5879 171.702 16.2119C172.134 16.8199 172.35 17.5719 172.35 18.4679C172.35 19.4599 172.086 20.3479 171.558 21.1319C171.03 21.9159 170.27 22.5319 169.278 22.9799C168.286 23.4119 167.126 23.6279 165.798 23.6279Z" fill="#E5E4ED"/>
<path d="M180.727 23.6279C178.903 23.6279 177.415 23.2359 176.263 22.4519C175.127 21.6519 174.559 20.5239 174.559 19.0679C174.559 18.9239 174.575 18.7079 174.607 18.4199H178.879C178.831 19.0279 178.975 19.5079 179.311 19.8599C179.647 20.2119 180.159 20.3879 180.847 20.3879C181.471 20.3879 181.959 20.2519 182.311 19.9799C182.679 19.7079 182.863 19.3239 182.863 18.8279C182.863 18.3159 182.631 17.8999 182.167 17.5799C181.719 17.2599 181.015 16.8999 180.055 16.4999C179.127 16.1159 178.367 15.7559 177.775 15.4199C177.199 15.0679 176.695 14.5959 176.263 14.0039C175.831 13.4119 175.615 12.6679 175.615 11.7719C175.599 10.6679 175.871 9.70795 176.431 8.89195C176.991 8.07595 177.767 7.45195 178.759 7.01995C179.751 6.58795 180.887 6.37195 182.167 6.37195C183.319 6.37195 184.343 6.55595 185.239 6.92395C186.135 7.27595 186.831 7.79595 187.327 8.48395C187.823 9.15595 188.071 9.95595 188.071 10.8839C188.071 11.1239 188.063 11.2999 188.047 11.4119H183.679C183.695 11.3479 183.703 11.2519 183.703 11.1239C183.703 10.6759 183.543 10.3159 183.223 10.0439C182.919 9.75595 182.495 9.61195 181.951 9.61195C181.375 9.61195 180.903 9.75595 180.535 10.0439C180.183 10.3159 180.007 10.6919 180.007 11.1719C180.007 11.6519 180.231 12.0599 180.679 12.3959C181.127 12.7159 181.823 13.0919 182.767 13.5239C183.711 13.9559 184.479 14.3559 185.071 14.7239C185.679 15.0919 186.199 15.5879 186.631 16.2119C187.063 16.8199 187.279 17.5719 187.279 18.4679C187.279 19.4599 187.015 20.3479 186.487 21.1319C185.959 21.9159 185.199 22.5319 184.207 22.9799C183.215 23.4119 182.055 23.6279 180.727 23.6279Z" fill="#E5E4ED"/>
<defs>
<radialGradient id="paint0_angular_187_314" cx="0" cy="0" r="1" gradientUnits="userSpaceOnUse" gradientTransform="rotate(55.008) scale(36.6197 18.2502)">
<stop stop-color="#5F48D9"/>
<stop offset="1" stop-color="#745EE1"/>
</radialGradient>
</defs>
</svg>
