<svg width="21" height="20" viewBox="0 0 21 20" fill="none" xmlns="http://www.w3.org/2000/svg">
<path d="M12.0629 1.50965L13.8229 5.02965C14.0629 5.51965 14.7029 5.98965 15.2429 6.07965L18.4329 6.60965C20.4729 6.94965 20.9529 8.42965 19.4829 9.88965L17.0029 12.3696C16.5829 12.7896 16.3529 13.5996 16.4829 14.1796L17.1929 17.2496C17.7529 19.6796 16.4629 20.6196 14.3129 19.3496L11.3229 17.5796C10.7829 17.2596 9.89292 17.2596 9.34292 17.5796L6.35292 19.3496C4.21292 20.6196 2.91292 19.6696 3.47292 17.2496L4.18292 14.1796C4.31292 13.5996 4.08292 12.7896 3.66292 12.3696L1.18292 9.88965C-0.277083 8.42965 0.192917 6.94965 2.23292 6.60965L5.42292 6.07965C5.95292 5.98965 6.59292 5.51965 6.83292 5.02965L8.59292 1.50965C9.55292 -0.400352 11.1129 -0.400352 12.0629 1.50965Z" fill="#745EE1"/>
</svg>
